<svg id="visual" viewBox="0 0 675 900" width="675" height="900" xmlns="http://www.w3.org/2000/svg"
  xmlns:xlink="http://www.w3.org/1999/xlink" version="1.1" preserveAspectRatio="none">
  <path
    d="M0 154L40 154L40 145L79 145L79 73L119 73L119 73L159 73L159 136L199 136L199 55L238 55L238 145L278 145L278 136L318 136L318 55L357 55L357 91L397 91L397 82L437 82L437 145L476 145L476 145L516 145L516 136L556 136L556 73L596 73L596 73L635 73L635 127L675 127L675 127L675 0L675 0L635 0L635 0L596 0L596 0L556 0L556 0L516 0L516 0L476 0L476 0L437 0L437 0L397 0L397 0L357 0L357 0L318 0L318 0L278 0L278 0L238 0L238 0L199 0L199 0L159 0L159 0L119 0L119 0L79 0L79 0L40 0L40 0L0 0Z"
    fill="#e5f0ff"></path>
  <path
    d="M0 244L40 244L40 271L79 271L79 145L119 145L119 217L159 217L159 217L199 217L199 136L238 136L238 217L278 217L278 199L318 199L318 163L357 163L357 154L397 154L397 226L437 226L437 298L476 298L476 271L516 271L516 307L556 307L556 226L596 226L596 145L635 145L635 217L675 217L675 199L675 125L675 125L635 125L635 71L596 71L596 71L556 71L556 134L516 134L516 143L476 143L476 143L437 143L437 80L397 80L397 89L357 89L357 53L318 53L318 134L278 134L278 143L238 143L238 53L199 53L199 134L159 134L159 71L119 71L119 71L79 71L79 143L40 143L40 152L0 152Z"
    fill="#f5f9ff"></path>
  <path
    d="M0 415L40 415L40 487L79 487L79 424L119 424L119 469L159 469L159 433L199 433L199 541L238 541L238 532L278 532L278 352L318 352L318 541L357 541L357 352L397 352L397 640L437 640L437 532L476 532L476 451L516 451L516 460L556 460L556 415L596 415L596 424L635 424L635 415L675 415L675 595L675 197L675 215L635 215L635 143L596 143L596 224L556 224L556 305L516 305L516 269L476 269L476 296L437 296L437 224L397 224L397 152L357 152L357 161L318 161L318 197L278 197L278 215L238 215L238 134L199 134L199 215L159 215L159 215L119 215L119 143L79 143L79 269L40 269L40 242L0 242Z"
    fill="#ffffff"></path>
  <path
    d="M0 721L40 721L40 703L79 703L79 631L119 631L119 811L159 811L159 667L199 667L199 784L238 784L238 820L278 820L278 739L318 739L318 775L357 775L357 757L397 757L397 793L437 793L437 757L476 757L476 685L516 685L516 820L556 820L556 721L596 721L596 748L635 748L635 667L675 667L675 739L675 593L675 413L635 413L635 422L596 422L596 413L556 413L556 458L516 458L516 449L476 449L476 530L437 530L437 638L397 638L397 350L357 350L357 539L318 539L318 350L278 350L278 530L238 530L238 539L199 539L199 431L159 431L159 467L119 467L119 422L79 422L79 485L40 485L40 413L0 413Z"
    fill="#f5f9ff"></path>
  <path
    d="M0 901L40 901L40 901L79 901L79 901L119 901L119 901L159 901L159 901L199 901L199 901L238 901L238 901L278 901L278 901L318 901L318 901L357 901L357 901L397 901L397 901L437 901L437 901L476 901L476 901L516 901L516 901L556 901L556 901L596 901L596 901L635 901L635 901L675 901L675 901L675 737L675 665L635 665L635 746L596 746L596 719L556 719L556 818L516 818L516 683L476 683L476 755L437 755L437 791L397 791L397 755L357 755L357 773L318 773L318 737L278 737L278 818L238 818L238 782L199 782L199 665L159 665L159 809L119 809L119 629L79 629L79 701L40 701L40 719L0 719Z"
    fill="#e5f0ff"></path>
</svg>